<svg xmlns="http://www.w3.org/2000/svg" version="1.1" viewBox="-5.0 -10.0 110.0 135.0">
 <g fill-rule="evenodd">
  <path d="m54 5c8.2852 0 15 6.7148 15 15h8c2.7617 0 5 2.2383 5 5s-2.2383 5-5 5h-54c-2.7617 0-5-2.2383-5-5s2.2383-5 5-5h8c0-8.2852 6.7148-15 15-15zm-13 15c0-2.7617 2.2383-5 5-5h8c2.7617 0 5 2.2383 5 5z"/>
  <path d="m78 36h-56v52c0 3.8672 3.1328 7 7 7h42c3.8672 0 7-3.1328 7-7zm-35.5 16.5c0-1.9336-1.5664-3.5-3.5-3.5s-3.5 1.5664-3.5 3.5v26c0 1.9336 1.5664 3.5 3.5 3.5s3.5-1.5664 3.5-3.5zm18.5-3.5c1.9336 0 3.5 1.5664 3.5 3.5v26c0 1.9336-1.5664 3.5-3.5 3.5s-3.5-1.5664-3.5-3.5v-26c0-1.9336 1.5664-3.5 3.5-3.5z"/>
 </g>
<text x="0.0" y="117.5" font-size="5.0" font-weight="bold" font-family="Arbeit Regular, Helvetica, Arial-Unicode, Arial, Sans-serif" fill="#000000">Created by Styfico</text><text x="0.0" y="122.5" font-size="5.0" font-weight="bold" font-family="Arbeit Regular, Helvetica, Arial-Unicode, Arial, Sans-serif" fill="#000000">from Noun Project</text></svg>